<?xml version="1.0" standalone="no"?>
<!DOCTYPE svg PUBLIC "-//W3C//DTD SVG 20010904//EN"
 "http://www.w3.org/TR/2001/REC-SVG-20010904/DTD/svg10.dtd">
<svg version="1.0" xmlns="http://www.w3.org/2000/svg"
 width="1080.000000pt" height="1080.000000pt" viewBox="0 0 1080.000000 1080.000000"
 preserveAspectRatio="xMidYMid meet">

<g transform="translate(0.000000,1080.000000) scale(0.100000,-0.100000)"
fill="#000000" stroke="none">
<path d="M0 5400 l0 -5400 5400 0 5400 0 0 5400 0 5400 -5400 0 -5400 0 0
-5400z m6864 2524 c1151 -1994 1457 -2532 1454 -2553 -6 -32 -2905 -5056
-2918 -5056 -13 0 -2912 5024 -2918 5056 -3 21 303 558 1454 2553 802 1389
1461 2526 1464 2526 3 0 662 -1137 1464 -2526z"/>
<path d="M5440 9260 l0 -715 643 -1113 642 -1114 614 -349 c338 -192 615 -348
616 -347 2 2 -2457 4259 -2505 4338 -6 9 -9 -261 -10 -700z"/>
<path d="M4103 7798 c-687 -1190 -1249 -2165 -1247 -2167 2 -2 279 155 616
348 l613 352 637 1107 638 1107 0 708 c0 389 -1 707 -3 707 -2 0 -566 -973
-1254 -2162z"/>
<path d="M5107 6314 c-304 -44 -618 -169 -901 -358 -163 -109 -258 -186 -397
-325 -156 -157 -179 -190 -179 -257 0 -46 5 -58 42 -106 61 -77 240 -253 338
-332 279 -222 621 -395 924 -466 296 -69 644 -67 941 4 411 99 800 329 1131
668 140 142 164 177 164 233 0 56 -24 91 -164 233 -385 394 -857 645 -1332
707 -143 19 -433 18 -567 -1z m503 -105 c315 -80 564 -346 624 -668 86 -453
-185 -885 -629 -1002 -106 -28 -279 -30 -388 -5 -527 120 -812 678 -604 1183
111 271 377 472 677 513 87 11 228 2 320 -21z m-899 -167 c-175 -179 -258
-376 -268 -632 -4 -112 -1 -150 16 -227 45 -204 150 -391 288 -513 26 -22 39
-40 31 -40 -26 0 -188 69 -298 126 -124 66 -294 177 -405 267 -85 69 -254 233
-313 305 -32 39 -34 45 -22 67 22 41 239 256 340 336 190 152 389 270 598 355
58 24 107 42 109 40 2 -1 -33 -39 -76 -84z m1523 -6 c124 -58 304 -168 429
-263 136 -103 397 -363 397 -395 0 -31 -175 -217 -309 -329 -191 -161 -478
-331 -681 -403 l-75 -27 81 83 c190 195 278 407 278 673 0 266 -85 472 -273
668 l-85 88 73 -26 c41 -15 115 -46 165 -69z"/>
<path d="M5288 5854 c-211 -51 -352 -234 -352 -454 0 -351 357 -572 674 -418
176 85 285 297 252 490 -47 274 -307 447 -574 382z"/>
<path d="M3475 5889 c-286 -165 -531 -306 -545 -314 -22 -13 21 -14 344 -12
l368 2 165 285 c165 286 196 341 191 339 -2 0 -237 -135 -523 -300z"/>
<path d="M6810 6172 c1 -4 79 -142 174 -307 l174 -300 368 -3 c202 -1 366 0
363 2 -2 2 -231 133 -509 291 -278 158 -520 295 -537 306 -18 10 -33 15 -33
11z"/>
<path d="M2925 5187 c19 -13 1034 -591 1084 -616 22 -12 21 -10 -10 46 -19 32
-101 177 -184 321 l-150 261 -380 1 c-320 0 -376 -2 -360 -13z"/>
<path d="M6953 4882 c-100 -174 -180 -319 -178 -321 4 -3 1048 591 1100 626
16 11 -42 13 -360 13 l-380 -1 -182 -317z"/>
<path d="M2857 5109 c12 -19 571 -986 1243 -2149 672 -1163 1230 -2128 1241
-2145 18 -30 19 -20 19 705 l0 735 -616 1070 c-339 589 -624 1078 -633 1087
-12 13 -1114 645 -1250 718 l-24 12 20 -33z"/>
<path d="M7310 4771 l-625 -359 -622 -1078 -623 -1079 0 -730 c0 -401 4 -725
8 -720 5 6 564 971 1242 2145 678 1174 1240 2145 1248 2158 8 12 10 22 6 22
-5 -1 -290 -162 -634 -359z"/>
</g>
</svg>
